<svg xmlns="http://www.w3.org/2000/svg" version="1.1" xmlns:xlink="http://www.w3.org/1999/xlink" xmlns:svgjs="http://svgjs.dev/svgjs" width="1000" height="1000" viewBox="0 0 1000 1000"><rect width="1000" height="1000" fill="#ffffff"></rect><g transform="matrix(0.7,0,0,0.7,149.57575757575756,422.01458873723834)"><svg viewBox="0 0 396 89" data-background-color="#ffffff" preserveAspectRatio="xMidYMid meet" height="224" width="1000" xmlns="http://www.w3.org/2000/svg" xmlns:xlink="http://www.w3.org/1999/xlink"><g id="tight-bounds" transform="matrix(1,0,0,1,0.2400000000000091,-0.23531997980205688)"><svg viewBox="0 0 395.52 89.47063915323011" height="89.47063915323011" width="395.52"><g><svg viewBox="0 0 572.207185287967 129.4390741196025" height="89.47063915323011" width="395.52"><g transform="matrix(1,0,0,1,0,17.889191864576034)"><svg viewBox="0 0 395.52 93.66069039045044" height="93.66069039045044" width="395.52"><g id="textblocktransform"><svg viewBox="0 0 395.52 93.66069039045044" height="93.66069039045044" width="395.52" id="textblock"><g><svg viewBox="0 0 395.52 62.120374008758425" height="62.120374008758425" width="395.52"><g transform="matrix(1,0,0,1,0,0)"><svg width="395.52" viewBox="2.369999885559082 -32.400001525878906 206.260009765625 32.400001525878906" height="62.120374008758425" data-palette-color="#c2a3fd"><g class="undefined-text-0" data-fill-palette-color="primary" id="text-0"><path d="M13.16-32.4L13.16 0 8.86 0 2.37-6.47 2.37-25.93 8.86-32.4 13.16-32.4ZM22.05-25.93L14.87-25.93 14.87-32.4 26.37-32.4 32.84-25.93 32.84-19.41 22.05-19.41 22.05-25.93ZM26.37 0L14.87 0 14.87-6.47 22.05-6.47 22.05-11.21 32.84-11.21 32.84-6.47 26.37 0ZM60.64 0L59.27-3.54 48.68-3.54 50.93-9.96 56.78-9.96 48.12-32.4 58.64-32.4 71.56 0 60.64 0ZM51.73-18.07L45.8 0 35.37 0 46.95-30.93 51.73-18.07ZM85.42 0L74.63 0 74.63-32.4 85.42-32.4 85.42 0ZM95.23-25.93L87.13-25.93 87.13-32.4 99.46-32.4 105.95-25.93 105.95-16.21 100.97-11.23 100.63-11.91 90.5-10.57 90.89-9.72 87.13-9.72 87.13-15.99 95.23-15.99 95.23-25.93ZM100.97-11.23L107.05 0 95.53 0 90.89-9.72 99.46-9.72 100.97-11.23ZM135.27 0L130.93 0 130.93-12.13 116.91-12.13 110.42-18.63 110.42-25.93 116.91-32.4 120.57-32.4 120.57-20.9 135.47-20.9 141.74-14.4 141.74-6.47 135.27 0ZM130.93-26.56L122.28-26.56 122.28-32.4 135.25-32.4 140.86-26.76 140.86-23.32 130.93-23.32 130.93-26.56ZM110.42-6.47L110.42-9.72 121.21-9.72 121.21-5.86 129.22-5.86 129.22 0 115.86 0 110.42-6.47ZM157.75 0L146.96 0 146.96-32.4 157.75-32.4 157.75 0ZM174.6 0L159.46 0 159.46-6.47 164.81-6.47 164.81-10.57 174.6-10.57 174.6 0ZM187.95-25.83L187.95-6.59 192-6.59 192 0 183.7 0 177.14-6.47 177.14-25.93 183.7-32.4 192-32.4 192-25.83 187.95-25.83ZM197.84-6.59L197.84-25.83 193.71-25.83 193.71-32.4 202.09-32.4 208.63-25.93 208.63-6.47 202.09 0 193.71 0 193.71-6.59 197.84-6.59Z" fill="#c2a3fd" data-fill-palette-color="primary"></path></g></svg></g></svg></g><g transform="matrix(1,0,0,1,163.310208,76.78550342325008)"><svg viewBox="0 0 232.209792 16.87518696720037" height="16.87518696720037" width="232.209792"><g transform="matrix(1,0,0,1,0,0)"><svg width="232.209792" viewBox="2.25 -36.25 643.25 46.75" height="16.87518696720037" data-palette-color="#753bcc"><path d="M20.1-35Q27.75-35 32.2-31.18 36.65-27.35 36.65-20.25L36.65-20.25 26.1-20.25Q26.1-23.25 24.53-25 22.95-26.75 20.05-26.75L20.05-26.75Q16.7-26.75 15.13-24.65 13.55-22.55 13.55-18.8L13.55-18.8 13.55-15.6Q13.55-11.9 15.13-9.78 16.7-7.65 19.95-7.65L19.95-7.65Q23.15-7.65 24.8-9.3 26.45-10.95 26.45-13.95L26.45-13.95 36.65-13.95Q36.65-6.9 32.33-3.15 28 0.6 20.1 0.6L20.1 0.6Q11.3 0.6 6.78-3.9 2.25-8.4 2.25-17.2L2.25-17.2Q2.25-26 6.78-30.5 11.3-35 20.1-35L20.1-35ZM54.95-27Q61-27 64.8-24.98 68.6-22.95 68.6-18.4L68.6-18.4 68.6-8.1Q68.6-7.25 69-6.7 69.4-6.15 70.2-6.15L70.2-6.15 72-6.15 72-0.4Q71.85-0.3 71.22-0.08 70.6 0.15 69.45 0.38 68.3 0.6 66.8 0.6L66.8 0.6Q63.9 0.6 62.02-0.28 60.15-1.15 59.45-2.7L59.45-2.7Q57.55-1.2 55.2-0.3 52.85 0.6 49.7 0.6L49.7 0.6Q40.4 0.6 40.4-6.8L40.4-6.8Q40.4-10.65 42.47-12.68 44.55-14.7 48.45-15.45 52.35-16.2 58.65-16.2L58.65-16.2 58.65-17.5Q58.65-19.05 57.57-19.85 56.5-20.65 54.8-20.65L54.8-20.65Q53.25-20.65 52.12-20.1 51-19.55 51-18.35L51-18.35 51-18.15 41.2-18.15Q41.15-18.4 41.15-18.85L41.15-18.85Q41.15-22.6 44.72-24.8 48.3-27 54.95-27L54.95-27ZM58.65-11.5Q54.4-11.5 52.37-10.58 50.35-9.65 50.35-8.1L50.35-8.1Q50.35-5.6 53.75-5.6L53.75-5.6Q55.7-5.6 57.17-6.65 58.65-7.7 58.65-9.25L58.65-9.25 58.65-11.5ZM91.3-27.05Q92.45-27.05 93.34-26.78 94.25-26.5 94.25-26.45L94.25-26.45 94.25-18.1 91.05-18.1Q87.95-18.1 86.57-16.5 85.2-14.9 85.2-11.75L85.2-11.75 85.2 0 75.25 0 75.25-26.4 83.4-26.4 84.05-22.4Q84.95-24.7 86.9-25.88 88.84-27.05 91.3-27.05L91.3-27.05ZM111.24-27Q116.54-27 120.22-24.93 123.89-22.85 123.89-18.5L123.89-18.5 114.64-18.5Q114.64-19.95 113.34-20.55L113.34-20.55Q112.44-21.05 111.09-21.05L111.09-21.05Q107.49-21.05 107.49-19.35L107.49-19.35Q107.49-18.4 108.74-18 109.99-17.6 112.84-17.15L112.84-17.15Q116.34-16.65 118.69-15.98 121.04-15.3 122.79-13.58 124.54-11.85 124.54-8.75L124.54-8.75Q124.54-3.7 120.77-1.55 116.99 0.6 110.89 0.6L110.89 0.6Q107.39 0.6 104.29-0.38 101.19-1.35 99.24-3.4 97.29-5.45 97.29-8.6L97.29-8.6 106.54-8.6 106.54-8.4Q106.59-6.7 107.97-6.03 109.34-5.35 110.89-5.35L110.89-5.35Q115.04-5.35 115.04-7.3L115.04-7.3Q115.04-8.3 113.74-8.75 112.44-9.2 109.49-9.7L109.49-9.7Q105.94-10.3 103.67-11 101.39-11.7 99.69-13.38 97.99-15.05 97.99-18.05L97.99-18.05Q97.99-22.9 101.67-24.95 105.34-27 111.24-27L111.24-27ZM158.94-27Q164.99-27 168.79-24.98 172.59-22.95 172.59-18.4L172.59-18.4 172.59-8.1Q172.59-7.25 172.99-6.7 173.39-6.15 174.19-6.15L174.19-6.15 175.99-6.15 175.99-0.4Q175.84-0.3 175.21-0.08 174.59 0.15 173.44 0.38 172.29 0.6 170.79 0.6L170.79 0.6Q167.89 0.6 166.01-0.28 164.14-1.15 163.44-2.7L163.44-2.7Q161.54-1.2 159.19-0.3 156.84 0.6 153.69 0.6L153.69 0.6Q144.39 0.6 144.39-6.8L144.39-6.8Q144.39-10.65 146.46-12.68 148.54-14.7 152.44-15.45 156.34-16.2 162.64-16.2L162.64-16.2 162.64-17.5Q162.64-19.05 161.56-19.85 160.49-20.65 158.79-20.65L158.79-20.65Q157.24-20.65 156.11-20.1 154.99-19.55 154.99-18.35L154.99-18.35 154.99-18.15 145.19-18.15Q145.14-18.4 145.14-18.85L145.14-18.85Q145.14-22.6 148.71-24.8 152.29-27 158.94-27L158.94-27ZM162.64-11.5Q158.39-11.5 156.36-10.58 154.34-9.65 154.34-8.1L154.34-8.1Q154.34-5.6 157.74-5.6L157.74-5.6Q159.69-5.6 161.16-6.65 162.64-7.7 162.64-9.25L162.64-9.25 162.64-11.5ZM197.44-27Q202.04-27 204.34-24.45 206.64-21.9 206.64-17.1L206.64-17.1 206.64 0 196.69 0 196.69-15.9Q196.69-17.6 195.81-18.63 194.94-19.65 193.34-19.65L193.34-19.65Q191.49-19.65 190.34-18.45 189.19-17.25 189.19-15.5L189.19-15.5 189.19 0 179.24 0 179.24-26.4 187.39-26.4 188.04-22.4Q189.59-24.5 192.11-25.75 194.64-27 197.44-27L197.44-27ZM230.73-0.8Q228.68 4.75 225.71 7.63 222.73 10.5 217.38 10.5L217.38 10.5Q214.13 10.5 211.63 9.6L211.63 9.6 211.63 3.65 215.63 3.65Q219.38 3.65 220.08 0L220.08 0 209.58-26.4 220.28-26.4 225.33-8.85 225.68-8.85 230.33-26.4 240.13-26.4 230.73-0.8ZM277.63 0L267.93 0 263.83-14.7 263.63-14.7 259.48 0 249.78 0 240.13-26.4 250.83-26.4 254.83-10.8 255.18-10.8 259.33-26.4 269.23-26.4 273.23-10.8 273.58-10.8 277.63-26.4 287.33-26.4 277.63 0ZM301.13-23.65Q302.73-25.25 304.88-26.13 307.03-27 309.38-27L309.38-27Q313.98-27 316.28-24.45 318.58-21.9 318.58-17.1L318.58-17.1 318.58 0 308.63 0 308.63-15.9Q308.63-17.6 307.75-18.63 306.88-19.65 305.28-19.65L305.28-19.65Q303.43-19.65 302.28-18.45 301.13-17.25 301.13-15.5L301.13-15.5 301.13 0 291.18 0 291.18-36.25 301.13-36.25 301.13-23.65ZM338.18-27Q345.43-27 349.25-23.6 353.08-20.2 353.08-13.2L353.08-13.2 353.08-11.5 333.28-11.5Q333.28-8.65 334.55-7.2 335.83-5.75 338.58-5.75L338.58-5.75Q341.08-5.75 342.25-6.8 343.43-7.85 343.43-9.6L343.43-9.6 353.08-9.6Q353.08-4.8 349.43-2.1 345.78 0.6 338.78 0.6L338.78 0.6Q331.43 0.6 327.38-2.83 323.33-6.25 323.33-13.2L323.33-13.2Q323.33-20 327.28-23.5 331.23-27 338.18-27L338.18-27ZM338.58-20.65Q333.88-20.65 333.33-16.2L333.33-16.2 343.03-16.2Q343.03-18.25 341.85-19.45 340.68-20.65 338.58-20.65L338.58-20.65ZM373.92-27.05Q375.07-27.05 375.97-26.78 376.87-26.5 376.87-26.45L376.87-26.45 376.87-18.1 373.67-18.1Q370.57-18.1 369.2-16.5 367.82-14.9 367.82-11.75L367.82-11.75 367.82 0 357.87 0 357.87-26.4 366.02-26.4 366.67-22.4Q367.57-24.7 369.52-25.88 371.47-27.05 373.92-27.05L373.92-27.05ZM394.52-27Q401.77-27 405.6-23.6 409.42-20.2 409.42-13.2L409.42-13.2 409.42-11.5 389.62-11.5Q389.62-8.65 390.9-7.2 392.17-5.75 394.92-5.75L394.92-5.75Q397.42-5.75 398.6-6.8 399.77-7.85 399.77-9.6L399.77-9.6 409.42-9.6Q409.42-4.8 405.77-2.1 402.12 0.6 395.12 0.6L395.12 0.6Q387.77 0.6 383.72-2.83 379.67-6.25 379.67-13.2L379.67-13.2Q379.67-20 383.62-23.5 387.57-27 394.52-27L394.52-27ZM394.92-20.65Q390.22-20.65 389.67-16.2L389.67-16.2 399.37-16.2Q399.37-18.25 398.2-19.45 397.02-20.65 394.92-20.65L394.92-20.65ZM443.92-27Q449.97-27 453.77-24.98 457.57-22.95 457.57-18.4L457.57-18.4 457.57-8.1Q457.57-7.25 457.97-6.7 458.37-6.15 459.17-6.15L459.17-6.15 460.97-6.15 460.97-0.4Q460.82-0.3 460.19-0.08 459.57 0.15 458.42 0.38 457.27 0.6 455.77 0.6L455.77 0.6Q452.87 0.6 450.99-0.28 449.12-1.15 448.42-2.7L448.42-2.7Q446.52-1.2 444.17-0.3 441.82 0.6 438.67 0.6L438.67 0.6Q429.37 0.6 429.37-6.8L429.37-6.8Q429.37-10.65 431.44-12.68 433.52-14.7 437.42-15.45 441.32-16.2 447.62-16.2L447.62-16.2 447.62-17.5Q447.62-19.05 446.54-19.85 445.47-20.65 443.77-20.65L443.77-20.65Q442.22-20.65 441.09-20.1 439.97-19.55 439.97-18.35L439.97-18.35 439.97-18.15 430.17-18.15Q430.12-18.4 430.12-18.85L430.12-18.85Q430.12-22.6 433.69-24.8 437.27-27 443.92-27L443.92-27ZM447.62-11.5Q443.37-11.5 441.34-10.58 439.32-9.65 439.32-8.1L439.32-8.1Q439.32-5.6 442.72-5.6L442.72-5.6Q444.67-5.6 446.14-6.65 447.62-7.7 447.62-9.25L447.62-9.25 447.62-11.5ZM482.41-27Q487.01-27 489.31-24.45 491.61-21.9 491.61-17.1L491.61-17.1 491.61 0 481.66 0 481.66-15.9Q481.66-17.6 480.79-18.63 479.91-19.65 478.31-19.65L478.31-19.65Q476.46-19.65 475.31-18.45 474.16-17.25 474.16-15.5L474.16-15.5 474.16 0 464.21 0 464.21-26.4 472.36-26.4 473.01-22.4Q474.56-24.5 477.09-25.75 479.61-27 482.41-27L482.41-27ZM515.71-0.8Q513.66 4.75 510.69 7.63 507.71 10.5 502.36 10.5L502.36 10.5Q499.11 10.5 496.61 9.6L496.61 9.6 496.61 3.65 500.61 3.65Q504.36 3.65 505.06 0L505.06 0 494.56-26.4 505.26-26.4 510.31-8.85 510.66-8.85 515.31-26.4 525.11-26.4 515.71-0.8ZM540.11-26.4L545.71-26.4 545.71-19.65 540.11-19.65 540.11-9.6Q540.11-7.8 540.71-6.98 541.31-6.15 542.91-6.15L542.91-6.15 545.71-6.15 545.71-0.3Q544.51 0.1 542.61 0.35 540.71 0.6 539.31 0.6L539.31 0.6Q534.91 0.6 532.53-1 530.16-2.6 530.16-6.45L530.16-6.45 530.16-19.65 526.46-19.65 526.46-26.4 530.56-26.4 532.71-34.4 540.11-34.4 540.11-26.4ZM560.61-29.5L550.66-29.5 550.66-36.25 560.61-36.25 560.61-29.5ZM560.61 0L550.66 0 550.66-26.4 560.61-26.4 560.61 0ZM602-27Q606.5-27 608.75-24.43 611-21.85 611-17.1L611-17.1 611 0 601.05 0 601.05-15.9Q601.05-17.6 600.23-18.63 599.4-19.65 597.9-19.65L597.9-19.65Q596.15-19.65 595.05-18.45 593.95-17.25 593.95-15.5L593.95-15.5 593.95 0 584 0 584-15.9Q584-17.6 583.18-18.63 582.35-19.65 580.85-19.65L580.85-19.65Q579.1-19.65 578-18.45 576.9-17.25 576.9-15.5L576.9-15.5 576.9 0 566.95 0 566.95-26.4 575.1-26.4 575.75-22.45Q577.25-24.55 579.73-25.78 582.2-27 584.95-27L584.95-27Q590.9-27 592.95-22.45L592.95-22.45Q594.5-24.55 596.93-25.78 599.35-27 602-27L602-27ZM630.6-27Q637.85-27 641.67-23.6 645.5-20.2 645.5-13.2L645.5-13.2 645.5-11.5 625.7-11.5Q625.7-8.65 626.97-7.2 628.25-5.75 631-5.75L631-5.75Q633.5-5.75 634.67-6.8 635.85-7.85 635.85-9.6L635.85-9.6 645.5-9.6Q645.5-4.8 641.85-2.1 638.2 0.6 631.2 0.6L631.2 0.6Q623.85 0.6 619.8-2.83 615.75-6.25 615.75-13.2L615.75-13.2Q615.75-20 619.7-23.5 623.65-27 630.6-27L630.6-27ZM631-20.65Q626.3-20.65 625.75-16.2L625.75-16.2 635.45-16.2Q635.45-18.25 634.27-19.45 633.1-20.65 631-20.65L631-20.65Z" opacity="1" transform="matrix(1,0,0,1,0,0)" fill="#753bcc" class="undefined-text-1" data-fill-palette-color="secondary" id="text-1"></path></svg></g></svg></g></svg></g></svg></g><g transform="matrix(1,0,0,1,410.18512941449166,0)"><svg viewBox="0 0 162.02205587347544 129.4390741196025" height="129.4390741196025" width="162.02205587347544"><g><svg version="1.1" xmlns="http://www.w3.org/2000/svg" xmlns:xlink="http://www.w3.org/1999/xlink" x="0" y="0" viewBox="11.855144500732422 19.5260009765625 76.29135131835938 60.948997497558594" enable-background="new 0 0 100 100" xml:space="preserve" height="129.4390741196025" width="162.02205587347544" class="icon-icon-0" data-fill-palette-color="accent" id="icon-0"><path d="M88.141 67.592L87.51 53.891c-0.1-2.158-1.535-3.85-3.27-3.85-0.209 0-0.393-0.013-0.544-0.031v-4.534c0-0.194-0.02-0.381-0.047-0.567 1.591-0.791 2.765-2.46 2.765-4.047 0-1.953-1.756-3.542-3.914-3.542h-3.26c-0.402 0-0.787 0.064-1.151 0.178l-1.86-10.62c-0.098-0.56-0.315-1.084-0.617-1.554 0.073-0.297 0.114-0.607 0.114-0.928v-0.957c0-2.158-1.755-3.913-3.913-3.913H28.188c-2.158 0-3.913 1.755-3.913 3.913v0.957c0 0.32 0.041 0.63 0.114 0.928-0.302 0.47-0.519 0.994-0.618 1.554l-1.86 10.62c-0.364-0.114-0.75-0.178-1.15-0.178H17.5c-2.158 0-3.913 1.589-3.913 3.542 0 1.586 1.174 3.255 2.764 4.047-0.027 0.185-0.046 0.373-0.046 0.567v4.534c-0.152 0.018-0.334 0.031-0.543 0.031-1.735 0-3.171 1.692-3.271 3.85l-0.63 13.701c-0.058 1.271 0.317 2.427 1.029 3.172 0.491 0.516 1.125 0.799 1.784 0.799h2.282v4.999c0 2.158 1.755 3.913 3.913 3.913h3.913c2.158 0 3.913-1.755 3.913-3.913v-4.999h42.609v4.999c0 2.158 1.755 3.913 3.912 3.913h3.914c2.157 0 3.912-1.755 3.912-3.913v-4.999h2.283c0.66 0 1.293-0.283 1.784-0.799C87.823 70.019 88.197 68.862 88.141 67.592zM26.087 76.562c0 0.72-0.585 1.305-1.304 1.305H20.87c-0.719 0-1.304-0.585-1.304-1.305v-4.999h6.521V76.562zM24.766 60.123c-2.752 0-4.983-2.076-4.983-4.637 0-2.56 2.231-4.635 4.983-4.635 2.751 0 4.983 2.075 4.983 4.635C29.749 58.047 27.518 60.123 24.766 60.123zM63.207 59.892H37.29c-0.36 0-0.652-0.292-0.652-0.651 0-0.361 0.292-0.652 0.652-0.652h25.917c0.36 0 0.652 0.291 0.652 0.652C63.859 59.6 63.567 59.892 63.207 59.892zM63.207 56.561H37.29c-0.36 0-0.652-0.293-0.652-0.652 0-0.36 0.292-0.652 0.652-0.652h25.917c0.36 0 0.652 0.292 0.652 0.652C63.859 56.268 63.567 56.561 63.207 56.561zM63.207 53.229H37.29c-0.36 0-0.652-0.292-0.652-0.652 0-0.359 0.292-0.652 0.652-0.652h25.917c0.36 0 0.652 0.293 0.652 0.652C63.859 52.937 63.567 53.229 63.207 53.229zM68.178 43.072c-1.227 0-2.645-0.153-3.529-0.382l-11.797-3.044c-0.56-0.144-1.244-0.24-1.982-0.283v-1.496c0.678-0.199 2.348-2.417 1.794-2.972C52.109 34.341 50.896 35.19 50 35.87c-0.924-0.707-2.04-1.597-2.663-0.974s1.123 2.775 1.793 2.972v1.496c-0.737 0.043-1.422 0.139-1.982 0.283L35.352 42.69c-0.885 0.229-2.304 0.382-3.53 0.382-0.42 0-0.807-0.019-1.118-0.053l-6.958-0.779c0-0.063 0.005-0.129 0.017-0.197l2.578-14.716c0.139-0.794 0.968-1.49 1.774-1.49h43.769c0.806 0 1.635 0.696 1.773 1.49l2.578 14.716c0.012 0.067 0.017 0.133 0.018 0.197l-6.959 0.779C68.984 43.054 68.598 43.072 68.178 43.072zM70.251 55.486c0-2.56 2.231-4.635 4.983-4.635s4.982 2.075 4.982 4.635c0 2.561-2.23 4.637-4.982 4.637S70.251 58.047 70.251 55.486zM80.435 76.562c0 0.72-0.585 1.305-1.304 1.305h-3.914c-0.719 0-1.304-0.585-1.304-1.305v-4.999h6.521V76.562z" fill="#896deb" data-fill-palette-color="accent"></path></svg></g></svg></g></svg></g><defs></defs></svg><rect width="395.52" height="89.47063915323011" fill="none" stroke="none" visibility="hidden"></rect></g></svg></g></svg>